<svg width="18" height="19" viewBox="0 0 18 19" fill="none" xmlns="http://www.w3.org/2000/svg">
<g clip-path="url(#clip0_224_167)">
<path fill-rule="evenodd" clip-rule="evenodd" d="M1.263 1.73702C0 3.00821 0 5.05481 0 9.14679V9.90165C0 13.993 0 16.0402 1.263 17.3114C2.526 18.5826 4.5594 18.5826 8.625 18.5826H9.375C13.44 18.5826 15.474 18.5826 16.737 17.3114C18 16.0402 18 13.9936 18 9.90167V9.90165V9.14679V9.14677C18 5.0554 18 3.00821 16.737 1.73702C15.474 0.46582 13.4406 0.46582 9.375 0.46582H8.625C4.56 0.46582 2.526 0.46582 1.263 1.73702ZM3.56279 6.12732H4.87499C5.21039 6.12732 5.33639 6.27527 5.46239 6.64123C6.10439 8.52296 7.18679 10.168 7.63139 10.168C7.79879 10.168 7.87499 10.0907 7.87499 9.66372V7.71858C7.84494 7.16485 7.65273 6.92533 7.51037 6.74792C7.42248 6.6384 7.35359 6.55256 7.35359 6.43108C7.35359 6.28312 7.47899 6.12732 7.68719 6.12732H9.74999C10.0284 6.12732 10.125 6.27709 10.125 6.61285V9.23012C10.125 9.50973 10.2456 9.60816 10.329 9.60816C10.4958 9.60816 10.635 9.50973 10.941 9.20174C11.8866 8.13828 12.5538 6.50113 12.5538 6.50113C12.6372 6.30486 12.7914 6.12732 13.125 6.12732H14.4372C14.8344 6.12732 14.9184 6.33325 14.8344 6.61285C14.6676 7.38281 13.0686 9.64983 13.0686 9.64983C12.9294 9.87387 12.8736 9.98559 13.0686 10.2374C13.1374 10.3344 13.2842 10.4793 13.4521 10.6449C13.6238 10.8142 13.8175 11.0053 13.9722 11.1892C14.5362 11.8275 14.961 12.3661 15.0792 12.7369C15.1878 13.1095 15 13.2986 14.625 13.2986H13.3122C12.9607 13.2986 12.7839 13.1004 12.4015 12.672C12.2394 12.4905 12.0404 12.2675 11.7756 12.0008C10.9962 11.2453 10.6632 11.1475 10.4682 11.1475C10.2042 11.1475 10.125 11.223 10.125 11.6004V12.7852C10.125 13.1095 10.0218 13.2986 9.18719 13.2986C7.79699 13.2986 6.26879 12.4489 5.18459 10.8812C3.55739 8.58637 3.11279 6.85078 3.11279 6.50113C3.11279 6.30486 3.18779 6.12732 3.56279 6.12732Z" fill="white"/>
</g>
<defs>
<clipPath id="clip0_224_167">
<rect width="18" height="18.1168" fill="white" transform="translate(0 0.46582)"/>
</clipPath>
</defs>
</svg>
