<?xml version="1.0" encoding="UTF-8" ?>
<!DOCTYPE svg PUBLIC "-//W3C//DTD SVG 1.1//EN" "http://www.w3.org/Graphics/SVG/1.1/DTD/svg11.dtd">
<svg width="934pt" height="934pt" viewBox="0 0 934 934" version="1.1" xmlns="http://www.w3.org/2000/svg">
<g id="#333333ff">
<path fill="#333333" opacity="1.00" d=" M 438.85 2.57 C 457.97 0.88 477.25 0.85 496.37 2.55 C 586.17 7.73 674.13 39.94 746.14 93.83 C 797.64 132.19 841.13 181.25 872.94 237.04 C 908.15 298.56 928.92 368.27 933.09 439.03 C 933.20 441.65 933.55 444.26 934.00 446.85 L 934.00 488.10 C 933.12 493.03 933.08 498.04 932.68 503.02 C 927.61 572.13 906.76 640.03 872.12 700.05 C 840.47 755.10 797.45 803.57 746.54 841.53 C 674.36 895.69 586.07 928.05 495.96 933.14 C 493.35 933.24 490.77 933.58 488.20 934.00 L 446.96 934.00 C 441.74 933.02 436.41 933.03 431.14 932.57 C 312.23 923.88 198.04 866.73 119.26 777.34 C 149.84 760.14 178.36 739.32 210.29 724.53 C 239.62 711.25 271.54 700.78 304.15 703.53 C 325.33 705.27 345.90 714.05 361.47 728.56 C 381.56 747.05 393.92 772.36 401.82 798.14 C 407.92 818.23 411.50 839.05 412.86 859.98 C 435.64 817.72 452.74 772.16 462.00 725.00 C 468.06 692.66 469.98 658.96 462.55 626.68 C 508.80 626.60 554.91 622.34 601.00 618.95 C 610.83 618.89 620.20 622.62 628.74 627.20 C 656.40 642.38 678.87 665.40 706.72 680.25 C 716.36 685.28 729.51 689.71 738.93 681.89 C 744.52 676.65 750.75 668.25 746.64 660.39 C 741.87 651.23 733.34 644.86 725.32 638.70 C 697.75 618.81 666.96 604.13 637.35 587.63 C 629.90 583.75 623.76 577.30 615.22 575.72 C 583.06 567.73 549.67 567.53 517.01 562.78 C 511.31 561.76 505.00 560.58 501.09 555.89 C 502.75 534.86 505.03 513.51 512.75 493.70 C 516.13 485.56 520.62 477.00 528.65 472.62 C 536.16 468.91 544.46 467.19 552.64 465.61 C 576.86 461.39 601.50 460.63 626.02 459.78 C 633.41 459.66 640.97 458.64 648.17 460.84 C 670.02 466.90 689.65 478.81 711.14 485.87 C 721.62 489.70 732.98 486.15 742.64 481.64 C 751.20 477.41 759.42 471.18 763.23 462.14 C 759.87 461.28 755.64 460.29 754.62 456.43 C 752.40 447.64 750.80 438.70 748.89 429.84 C 753.72 431.62 758.08 434.43 762.82 436.43 C 746.26 422.53 727.94 410.71 711.92 396.11 C 709.88 394.10 707.37 392.05 707.11 388.99 C 705.15 375.23 702.65 361.54 700.34 347.83 C 699.15 339.78 693.99 333.16 689.11 326.94 C 678.08 313.92 665.85 301.60 651.58 292.15 C 651.00 276.90 655.55 262.06 661.02 248.01 C 666.88 233.30 674.08 219.13 682.47 205.71 C 679.41 201.49 673.88 200.37 668.98 201.23 C 659.11 202.80 650.18 207.70 641.61 212.61 C 613.37 229.80 588.26 251.67 564.71 274.75 C 563.74 275.54 562.57 276.01 561.42 276.46 C 528.16 287.80 496.14 302.40 463.62 315.61 C 443.61 320.48 422.78 320.32 402.39 322.56 C 302.96 324.82 207.66 362.51 124.28 414.88 C 115.10 401.58 117.39 383.93 124.80 370.39 C 114.37 374.36 105.00 380.57 95.82 386.82 C 61.51 411.20 31.11 440.53 1.36 470.18 C 1.30 460.23 1.43 450.27 2.48 440.37 C 7.58 347.88 41.42 257.31 98.01 184.01 C 138.05 131.88 189.17 88.30 247.07 57.17 C 306.03 25.33 371.97 6.57 438.85 2.57 Z" />
<path fill="#333333" opacity="1.00" d=" M 630.48 251.55 C 639.74 238.55 652.45 228.14 666.07 220.03 C 656.87 232.57 647.91 245.54 642.28 260.15 C 638.98 268.56 636.83 277.95 639.55 286.84 C 633.43 284.45 627.32 280.32 625.09 273.86 C 622.73 266.07 626.10 257.95 630.48 251.55 Z" />
<path fill="#333333" opacity="1.00" d=" M 644.80 367.00 C 654.58 364.20 664.81 363.20 674.93 362.49 C 677.38 367.68 679.69 372.94 682.28 378.07 C 669.61 384.97 650.87 380.82 644.80 367.00 Z" />
</g>
<g id="#f47320ff">
<path fill="#f47320" opacity="1.00" d=" M 641.61 212.61 C 650.18 207.70 659.11 202.80 668.98 201.23 C 673.88 200.37 679.41 201.49 682.47 205.71 C 674.08 219.13 666.88 233.30 661.02 248.01 C 655.55 262.06 651.00 276.90 651.58 292.15 C 665.85 301.60 678.08 313.92 689.11 326.94 C 693.99 333.16 699.15 339.78 700.34 347.83 C 702.65 361.54 705.15 375.23 707.11 388.99 C 707.37 392.05 709.88 394.10 711.92 396.11 C 727.94 410.71 746.26 422.53 762.82 436.43 C 758.08 434.43 753.72 431.62 748.89 429.84 C 750.80 438.70 752.40 447.64 754.62 456.43 C 755.64 460.29 759.87 461.28 763.23 462.14 C 759.42 471.18 751.20 477.41 742.64 481.64 C 732.98 486.15 721.62 489.70 711.14 485.87 C 689.65 478.81 670.02 466.90 648.17 460.84 C 640.97 458.64 633.41 459.66 626.02 459.78 C 601.50 460.63 576.86 461.39 552.64 465.61 C 544.46 467.19 536.16 468.91 528.65 472.62 C 520.62 477.00 516.13 485.56 512.75 493.70 C 505.03 513.51 502.75 534.86 501.09 555.89 C 505.00 560.58 511.31 561.76 517.01 562.78 C 549.67 567.53 583.06 567.73 615.22 575.72 C 623.76 577.30 629.90 583.75 637.35 587.63 C 666.96 604.13 697.75 618.81 725.32 638.70 C 733.34 644.86 741.87 651.23 746.64 660.39 C 750.75 668.25 744.52 676.65 738.93 681.89 C 729.51 689.71 716.36 685.28 706.72 680.25 C 678.87 665.40 656.40 642.38 628.74 627.20 C 620.20 622.62 610.83 618.89 601.00 618.95 C 554.91 622.34 508.80 626.60 462.55 626.68 C 458.16 607.60 450.23 589.23 438.58 573.45 C 404.02 527.18 342.90 504.95 286.33 511.36 C 262.76 512.85 239.82 520.38 218.66 530.66 C 165.86 558.54 120.99 599.17 81.35 643.38 C 71.24 654.57 62.03 666.60 51.23 677.15 C 31.50 637.96 17.42 595.95 9.41 552.81 C 14.01 547.70 20.40 544.82 25.96 540.94 C 74.71 509.27 129.48 486.36 187.00 477.01 C 217.67 471.33 249.01 469.68 279.41 462.49 C 298.52 457.88 317.15 449.98 332.48 437.50 C 360.28 415.13 377.55 382.80 391.81 350.74 C 395.44 341.40 400.16 332.38 402.39 322.56 C 422.78 320.32 443.61 320.48 463.62 315.61 C 496.14 302.40 528.16 287.80 561.42 276.46 C 562.57 276.01 563.74 275.54 564.71 274.75 C 588.26 251.67 613.37 229.80 641.61 212.61 M 630.48 251.55 C 626.10 257.95 622.73 266.07 625.09 273.86 C 627.32 280.32 633.43 284.45 639.55 286.84 C 636.83 277.95 638.98 268.56 642.28 260.15 C 647.91 245.54 656.87 232.57 666.07 220.03 C 652.45 228.14 639.74 238.55 630.48 251.55 M 644.80 367.00 C 650.87 380.82 669.61 384.97 682.28 378.07 C 679.69 372.94 677.38 367.68 674.93 362.49 C 664.81 363.20 654.58 364.20 644.80 367.00 M 514.46 397.34 C 511.95 405.33 515.28 413.51 516.45 421.44 C 500.60 418.31 484.63 415.77 468.90 412.09 C 461.79 410.18 453.97 408.49 448.87 402.73 C 445.40 405.38 442.35 409.45 443.08 414.07 C 443.95 420.39 447.85 425.68 451.11 430.98 C 458.25 441.83 465.25 452.91 469.78 465.15 C 475.56 480.59 477.24 497.16 482.24 512.84 C 487.00 526.82 492.61 541.05 500.78 553.26 C 494.00 531.56 494.83 507.45 503.38 486.37 C 508.00 474.98 516.36 464.16 528.66 460.69 C 557.72 451.19 588.67 449.65 619.01 448.69 C 629.15 448.89 639.75 447.68 649.41 451.49 C 665.69 457.56 681.18 465.51 696.66 473.35 C 703.79 476.83 710.66 481.79 718.92 481.92 C 733.45 482.60 749.68 474.64 754.40 460.14 C 733.04 458.74 711.89 454.35 691.72 447.20 C 676.35 441.41 660.48 434.98 648.58 423.27 C 618.25 424.26 587.10 422.87 558.12 412.87 C 545.02 408.25 531.78 401.39 524.13 389.30 C 520.08 390.66 515.85 393.00 514.46 397.34 Z" />
</g>
<g id="#e65c0dff">
<path fill="#e65c0d" opacity="1.00" d=" M 124.28 414.88 C 207.66 362.51 302.96 324.82 402.39 322.56 C 400.16 332.38 395.44 341.40 391.81 350.74 C 377.55 382.80 360.28 415.13 332.48 437.50 C 317.15 449.98 298.52 457.88 279.41 462.49 C 249.01 469.68 217.67 471.33 187.00 477.01 C 129.48 486.36 74.71 509.27 25.96 540.94 C 20.40 544.82 14.01 547.70 9.41 552.81 C 4.42 525.56 1.85 497.86 1.36 470.18 C 31.11 440.53 61.51 411.20 95.82 386.82 C 105.00 380.57 114.37 374.36 124.80 370.39 C 117.39 383.93 115.10 401.58 124.28 414.88 Z" />
<path fill="#e65c0d" opacity="1.00" d=" M 218.66 530.66 C 239.82 520.38 262.76 512.85 286.33 511.36 C 316.14 522.50 344.87 537.86 368.14 559.82 C 381.99 572.87 393.59 588.58 400.48 606.40 C 377.51 587.65 347.38 579.20 318.01 579.66 C 296.39 580.03 274.92 584.68 254.78 592.48 C 294.08 604.36 332.39 626.31 355.33 661.29 C 300.77 659.04 246.14 683.65 210.29 724.53 C 178.36 739.32 149.84 760.14 119.26 777.34 C 92.36 747.08 69.45 713.30 51.23 677.15 C 62.03 666.60 71.24 654.57 81.35 643.38 C 120.99 599.17 165.86 558.54 218.66 530.66 Z" />
</g>
<g id="#f0f0f0ff">
<path fill="#f0f0f0" opacity="1.00" d=" M 514.46 397.34 C 515.85 393.00 520.08 390.66 524.13 389.30 C 531.78 401.39 545.02 408.25 558.12 412.87 C 587.10 422.87 618.25 424.26 648.58 423.27 C 660.48 434.98 676.35 441.41 691.72 447.20 C 711.89 454.35 733.04 458.74 754.40 460.14 C 749.68 474.64 733.45 482.60 718.92 481.92 C 710.66 481.79 703.79 476.83 696.66 473.35 C 681.18 465.51 665.69 457.56 649.41 451.49 C 639.75 447.68 629.15 448.89 619.01 448.69 C 588.67 449.65 557.72 451.19 528.66 460.69 C 516.36 464.16 508.00 474.98 503.38 486.37 C 494.83 507.45 494.00 531.56 500.78 553.26 C 492.61 541.05 487.00 526.82 482.24 512.84 C 477.24 497.16 475.56 480.59 469.78 465.15 C 465.25 452.91 458.25 441.83 451.11 430.98 C 447.85 425.68 443.95 420.39 443.08 414.07 C 442.35 409.45 445.40 405.38 448.87 402.73 C 453.97 408.49 461.79 410.18 468.90 412.09 C 484.63 415.77 500.60 418.31 516.45 421.44 C 515.28 413.51 511.95 405.33 514.46 397.34 Z" />
<path fill="#f0f0f0" opacity="1.00" d=" M 286.33 511.36 C 342.90 504.95 404.02 527.18 438.58 573.45 C 450.23 589.23 458.16 607.60 462.55 626.68 C 469.98 658.96 468.06 692.66 462.00 725.00 C 452.74 772.16 435.64 817.72 412.86 859.98 C 411.50 839.05 407.92 818.23 401.82 798.14 C 393.92 772.36 381.56 747.05 361.47 728.56 C 345.90 714.05 325.33 705.27 304.15 703.53 C 271.54 700.78 239.62 711.25 210.29 724.53 C 246.14 683.65 300.77 659.04 355.33 661.29 C 332.39 626.31 294.08 604.36 254.78 592.48 C 274.92 584.68 296.39 580.03 318.01 579.66 C 347.38 579.20 377.51 587.65 400.48 606.40 C 393.59 588.58 381.99 572.87 368.14 559.82 C 344.87 537.86 316.14 522.50 286.33 511.36 Z" />
</g>
</svg>
